# xmcd
#
# Track frame offsets: 
#        150
#        13280
#        25282
#        38838
#        52303
#        64779
#        77461
#        90142
#        101140
#        114338
#        128216
#        141175
#        155598
#        168455
#        181847
#        194403
#        206858
#        218453
#        231791
#        244924
#        257736
#        270057
#        283285
#        294472
#
# Disc length: 4094 seconds
#
# Revision: 1
# Processed by: cddbd v1.5.2PL0 Copyright (c) Steve Scherf et al.
# Submitted via: ExactAudioCopyFreeDBPlugin 1.0
#
DISCID=5b0ffc18
DTITLE=Various Artist - Black Vocal Groups Vol. 10 (c.1919-1929)
DYEAR=1999
DGENRE=Gospel
TTITLE0=Noble Sissle's Southland Singers - Go Down Moses
TTITLE1=Noble Sissle's Southland Singers - Year of Jubilee
TTITLE2=Norfolk Jazz and Jubilee Quartet - Sad Blues [take 3]
TTITLE3=Norfolk Jazz and Jubilee Quartet - Stop Dat Band [take 2]
TTITLE4=Norfolk Jazz and Jubilee Quartet - Dixie Blues [take 3]
TTITLE5=Norfolk Jazz and Jubilee Quartet - Crying Holy unto the Lord [ta
TTITLE5=ke 1]
TTITLE6=Norfolk Jazz and Jubilee Quartet - Pharaoh's Army Got Drowned [t
TTITLE6=ake 1]
TTITLE7=Norfolk Jazz and Jubilee Quartet - See the Sign of Judgement [ta
TTITLE7=ke 1]
TTITLE8=Norfolk Jazz and Jubilee Quartet - He Just Hung His Head and Die
TTITLE8=d [take 1]
TTITLE9=Horace George's Jubilee Harmonizers - Hard Trials [take 1]
TTITLE10=Paramount Jubilee Singers - That Old Time Religion [1569-2]
TTITLE11=Rev. C. D. Montgomery - Who Was Job? Part 1 [take 2]
TTITLE12=Biddleville Quintette - Oh Why Not To-night [take 1]
TTITLE13=Grace Outlaw with the Florida Jubilee Singers - In Some Lones
TTITLE13=ome Graveyard [take 1]
TTITLE14=Ernia Mae Cunningham and T. C. I. Sacred Singers - You Better R
TTITLE14=un [take 2]
TTITLE15=Daniel Haynes and Dixie Jubilee Singers - Waiting at the End of
TTITLE15=The Road
TTITLE16=W.C. Elkins and His Dextra Singers - Hail Hail Hail
TTITLE17=W.C. Elkins and His Dextra Singers - Oh Mother Don't You Weep
TTITLE18=W.C. Elkins and His Dextra Singers - Roll Roll Chariot
TTITLE19=W.C. Elkins and His Dextra Singers - We Are Climbing Jacob's 
TTITLE19=Ladder
TTITLE20=Aunt Jemima Novelty Four - You're Going to Leave the Old Home
TTITLE20=Jim
TTITLE21=Aunt Jemima Novelty Four - Nobody Knows You When You're Down 
TTITLE21=and Out
TTITLE22=Southern Male Quartet - De Glory Road -- Part 1
TTITLE23=Southern Male Quartet - De Glory Road -- Part 2
EXTD=
EXTT0=
EXTT1=
EXTT2=
EXTT3=
EXTT4=
EXTT5=
EXTT6=
EXTT7=
EXTT8=
EXTT9=
EXTT10=
EXTT11=
EXTT12=
EXTT13=
EXTT14=
EXTT15=
EXTT16=
EXTT17=
EXTT18=
EXTT19=
EXTT20=
EXTT21=
EXTT22=
EXTT23=
PLAYORDER=
